<?xml version="1.0" encoding="UTF-8" ?>
<svg version="1.1" width="960" height="540" xmlns="http://www.w3.org/2000/svg" shape-rendering="crispEdges">
<rect x="490" y="200" width="30" height="30" fill="#00F4FF" />
<rect x="630" y="200" width="30" height="140" fill="#00F4FF" />
<rect x="160" y="210" width="60" height="20" fill="#00F4FF" />
<rect x="150" y="220" width="10" height="40" fill="#00F4FF" />
<rect x="220" y="220" width="10" height="40" fill="#00F4FF" />
<rect x="140" y="230" width="10" height="110" fill="#00F4FF" />
<rect x="160" y="230" width="10" height="10" fill="#00F4FF" />
<rect x="210" y="230" width="10" height="10" fill="#00F4FF" />
<rect x="230" y="230" width="10" height="110" fill="#00F4FF" />
<rect x="130" y="240" width="10" height="90" fill="#00F4FF" />
<rect x="240" y="240" width="10" height="90" fill="#00F4FF" />
<rect x="280" y="240" width="50" height="20" fill="#00F4FF" />
<rect x="350" y="240" width="50" height="20" fill="#00F4FF" />
<rect x="450" y="240" width="70" height="20" fill="#00F4FF" />
<rect x="610" y="240" width="20" height="20" fill="#00F4FF" />
<rect x="660" y="240" width="60" height="20" fill="#00F4FF" />
<rect x="120" y="260" width="10" height="50" fill="#00F4FF" />
<rect x="250" y="260" width="10" height="50" fill="#00F4FF" />
<rect x="300" y="260" width="30" height="80" fill="#00F4FF" />
<rect x="370" y="260" width="30" height="100" fill="#00F4FF" />
<rect x="490" y="260" width="30" height="100" fill="#00F4FF" />
<rect x="150" y="310" width="10" height="40" fill="#00F4FF" />
<rect x="220" y="310" width="10" height="40" fill="#00F4FF" />
<rect x="160" y="330" width="10" height="60" fill="#00F4FF" />
<rect x="210" y="330" width="10" height="20" fill="#00F4FF" />
<rect x="360" y="330" width="10" height="20" fill="#00F4FF" />
<rect x="710" y="330" width="30" height="20" fill="#00F4FF" />
<rect x="170" y="340" width="40" height="20" fill="#00F4FF" />
<rect x="310" y="340" width="50" height="10" fill="#00F4FF" />
<rect x="400" y="340" width="20" height="20" fill="#00F4FF" />
<rect x="440" y="340" width="50" height="20" fill="#00F4FF" />
<rect x="520" y="340" width="50" height="20" fill="#00F4FF" />
<rect x="640" y="340" width="70" height="10" fill="#00F4FF" />
<rect x="320" y="350" width="40" height="10" fill="#00F4FF" />
<rect x="650" y="350" width="70" height="10" fill="#00F4FF" />
<rect x="170" y="360" width="30" height="20" fill="#00F4FF" />
<rect x="230" y="360" width="30" height="20" fill="#00F4FF" />
<rect x="150" y="370" width="10" height="20" fill="#00F4FF" />
<rect x="200" y="370" width="30" height="10" fill="#00F4FF" />
<rect x="210" y="380" width="40" height="10" fill="#00F4FF" />
</svg>